<?xml version="1.0" encoding="UTF-8" standalone="no"?>
<!-- Created with Inkscape (http://www.inkscape.org/) -->

<svg
   width="21.578684cm"
   height="21.874767cm"
   viewBox="0 0 215.78684 218.74767"
   version="1.1"
   id="svg5"
   xmlns:xlink="http://www.w3.org/1999/xlink"
   xmlns="http://www.w3.org/2000/svg"
   xmlns:svg="http://www.w3.org/2000/svg">
  <defs
     id="defs2">
    <color-profile
       name="Adobe-RGB--1998-"
       xlink:href="file:///System/Library/ColorSync/Profiles/AdobeRGB1998.icc"
       id="color-profile12156" />
    <color-profile
       name="ACES-CG-Linear--Academy-Color-Encoding-System-AP1-"
       xlink:href="file:///System/Library/ColorSync/Profiles/ACESCG%20Linear.icc"
       id="color-profile12158" />
    <linearGradient
       id="linearGradient5400">
      <stop
         style="stop-color:#ffffff;stop-opacity:1;"
         offset="0"
         id="stop5396" />
      <stop
         style="stop-color:#ffffff;stop-opacity:0;"
         offset="1"
         id="stop5398" />
    </linearGradient>
    <radialGradient
       xlink:href="#linearGradient5400"
       id="radialGradient5402"
       cx="98.750267"
       cy="93.412415"
       fx="98.750267"
       fy="93.412415"
       r="9.5540295"
       gradientUnits="userSpaceOnUse"
       gradientTransform="matrix(0.65081146,0,0,0.65081146,31.146304,24.611767)" />
    <radialGradient
       xlink:href="#linearGradient5400"
       id="radialGradient5402-3"
       cx="98.750267"
       cy="93.412415"
       fx="98.750267"
       fy="93.412415"
       r="9.5540295"
       gradientUnits="userSpaceOnUse"
       gradientTransform="matrix(0.65081146,0,0,0.65081146,69.178499,24.611761)" />
  </defs>
  <g
     id="layer1"
     transform="translate(-1.9514864,-1.3879189)">
    <g
       id="g8277">
      <path
         style="display:inline;fill:#8d800c;fill-opacity:1;stroke-width:0.264583"
         d="M 31.61146,208.26374 C 27.582549,202.99516 5.2685767,147.21023 5.2685767,147.21023 c 0,0 19.5247253,-64.772502 15.4958133,-72.210492 C 16.735479,67.561748 4.9586604,68.491495 2.1694139,43.698194 -0.61983257,18.904893 24.173469,2.1694139 30.371796,1.8594976 36.57012,1.5495814 103.82195,8.0578231 107.85086,8.0578231 c 4.02892,0 39.04945,-12.0867347 74.99974,-3.7189952 35.95029,8.3677391 35.95029,39.9791991 34.40071,64.1526691 -1.54958,24.173469 -4.95866,74.069993 -4.95866,74.069993 0,0 -31.61146,26.03296 -32.54121,29.13213 -0.92975,3.09916 28.82221,28.82221 28.82221,28.82221 0,0 -12.88793,15.49515 -33.16104,17.35531 -9.25418,0.84912 -37.27493,2.16832 -65.08314,2.2601 -33.111146,0.10928 -66.697788,-1.78057 -78.71801,-11.8675 z"
         id="path8274" />
      <path
         style="fill:#b7a824;fill-opacity:1;stroke-width:0.264583"
         d="M 59.194009,209.5034 C 22.13314,192.96709 13.3264,142.8714 13.3264,142.8714 c 0,0 20.535306,-25.76682 20.144558,-56.714675 C 33.08021,55.208871 9.9680613,43.113538 11.156986,39.9792 12.128385,37.41832 29.301115,26.212488 83.057562,15.185898 136.81401,4.1593074 179.75144,11.466902 182.8506,12.706567 c 3.09916,1.239665 32.95649,13.895149 26.34289,62.603088 -6.6136,48.707935 -32.2313,52.375845 -32.2313,52.375845 l 23.86356,3.09917 c 0,0 -35.33046,11.4669 -35.95029,41.52878 -0.61983,30.06188 29.44204,27.27263 29.44204,27.27263 -39.99377,19.44234 -98.062622,26.45363 -135.123491,9.91732 z"
         id="path8335" />
    </g>
    <g
       id="g6121"
       style="display:none">
      <rect
         style="fill:#ffccaa;fill-opacity:0.988235;stroke-width:0.264583"
         id="rect2614"
         width="60.390903"
         height="37.036606"
         x="81.150276"
         y="182.82404" />
      <rect
         style="fill:#eeb590;fill-opacity:1;stroke-width:0.17146"
         id="rect2614-1"
         width="25.361246"
         height="37.036606"
         x="81.232216"
         y="182.81548" />
    </g>
    <g
       id="g6127"
       style="display:none">
      <ellipse
         style="fill:#eeb590;fill-opacity:1;stroke-width:0.264583"
         id="path3886"
         cx="58.549564"
         cy="106.75703"
         rx="15.846748"
         ry="20.684175" />
      <ellipse
         style="fill:#ffccaa;fill-opacity:0.988235;stroke-width:0.264583"
         id="path3886-9"
         cx="160.74533"
         cy="106.42342"
         rx="15.846748"
         ry="20.684175" />
      <ellipse
         style="fill:#eeb590;fill-opacity:1;stroke-width:0.18826"
         id="path3886-9-7"
         cx="161.47003"
         cy="104.08812"
         rx="11.843359"
         ry="14.01186" />
      <ellipse
         style="fill:#e2996a;fill-opacity:1;stroke-width:0.18826"
         id="path3886-9-7-8"
         cx="58.716373"
         cy="104.08811"
         rx="11.843359"
         ry="14.01186" />
    </g>
    <g
       id="g6137"
       style="display:inline">
      <path
         id="path1514"
         style="fill:#ffccaa;fill-opacity:0.988235;stroke-width:0.535838"
         d="M 109.72547,25.558523 A 44.387605,37.210988 0 0 0 65.341189,62.703282 h -0.0035 v 0.06613 90.480678 h 0.08357 a 44.38761,37.210988 0 0 0 44.345351,36.26513 44.38761,37.210988 0 0 0 44.34536,-36.26513 h 0.0549 V 62.703282 h -0.0549 a 44.387605,37.210988 0 0 0 -44.3865,-37.144759 z" />
      <path
         id="path1514-8"
         style="fill:#edb48f;fill-opacity:0.940171;stroke-width:0.535838"
         d="m 109.37434,25.592948 c -24.482478,0.0015 -44.340705,16.620654 -44.384279,37.144759 h -0.004 v 0.06613 90.480683 h 0.0836 c 0.611679,20.167 20.281114,36.25244 44.345349,36.26513 -5.03817,-10.97047 -5.99691,-41.01909 -25.410761,-55.04785 -22.807922,-16.48137 -8.98526,-32.1045 0.89461,-31.41885 C 102.5911,104.31078 84.127084,73.97028 89.273654,68.804515 76.355546,65.256754 75.698431,55.589746 77.564038,49.763099 80.237906,41.412101 84.553992,34.322016 109.37434,25.592948 Z" />
      <path
         style="fill:#eeb590;fill-opacity:1;stroke-width:0.264583"
         d="m 97.42751,102.4994 9.31813,1.17951 -8.610423,23.1184 c 0,0 -11.205344,3.19306 -11.205344,2.35902 10e-7,-18.04651 10.497637,-26.65693 10.497637,-26.65693 z"
         id="path5494" />
    </g>
    <g
       id="g6159"
       style="display:inline">
      <path
         id="path1514-58"
         style="fill:#2d2d2d;fill-opacity:0.988235;stroke-width:0.422916"
         d="m 110.36987,119.95373 a 48.041864,21.416862 0 0 0 -48.038258,21.37875 h -0.0038 v 0.038 52.07634 h 0.09045 a 48.04187,21.416862 0 0 0 47.996128,20.87253 48.04187,21.416862 0 0 0 47.99614,-20.87247 h 0.0594 v -52.1144 h -0.0594 a 48.041864,21.416862 0 0 0 -48.04067,-21.37875 z" />
      <path
         id="path1514-58-9"
         style="fill:#000000;fill-opacity:0.988235;stroke-width:0.422916"
         d="m 62.334858,141.92223 h -0.004 v 0.038 52.07634 h 0.0905 c 0.661966,11.60718 21.95073,20.86523 47.996132,20.87253 26.04535,-0.007 47.3341,-9.26531 47.99614,-20.87247 h 0.0594 c -43.92686,17.99627 -63.067872,11.41795 -75.053728,0.16816 -12.828814,-12.04097 -15.052076,-39.42578 -0.69757,-41.97374 14.354505,-2.54797 44.281298,4.91751 42.278588,-6.4848 -0.96754,-5.50867 -9.31455,-35.39821 -46.95877,-20.0202 -3.822466,1.50064 -15.508074,5.70524 -15.706692,16.19618 z" />
      <path
         style="fill:#555555;fill-opacity:1;stroke-width:0.24359"
         d="m 138.41871,126.82886 c 23.91642,8.01436 16.71347,15.1297 17.19117,33.65296 0.14481,5.61519 -3.98458,3.2745 -4.10843,0.22515 -0.65027,-16.01098 3.17659,-23.91796 -13.14938,-28.53464 -4.92689,-1.39324 -3.57889,-6.56508 0.0666,-5.34347 z"
         id="path4865" />
    </g>
    <g
       id="g6167"
       style="display:none">
      <path
         id="path2453"
         style="fill:#800000;fill-opacity:0.988235;stroke-width:0.363583"
         d="m 81.006883,154.75189 a 29.605696,28.072334 0 0 0 -0.09271,2.12287 29.605696,28.072334 0 0 0 29.605707,28.07219 29.605696,28.072334 0 0 0 29.6057,-28.07219 29.605696,28.072334 0 0 0 -0.0871,-2.12287 z" />
      <path
         style="fill:#d8d8d8;fill-opacity:1;stroke-width:0.259174"
         d="m 85.694423,154.79771 c 0,0 -3.334548,9.5565 10.639738,9.70865 13.974319,0.15215 22.868259,-0.12444 33.324489,-0.39898 10.45623,-0.27454 7.62849,-9.30967 7.62849,-9.30967 z"
         id="path5851" />
      <path
         style="fill:#f3f3f3;fill-opacity:1;stroke-width:0.223238"
         d="m 86.310926,156.97049 c 0,0 -1.195784,7.53771 11.245416,7.45717 12.441198,-0.0806 21.701778,0.30169 31.624658,-0.31192 9.92288,-0.61362 8.22371,-7.21176 8.22371,-7.21176 z"
         id="path5851-3" />
      <path
         style="fill:#ff5555;fill-opacity:1;stroke-width:0.273229"
         d="m 83.984728,169.2911 c 8.510934,-1.17488 16.272942,-1.91594 28.352342,2.07026 8.89744,-5.60283 14.22918,4.64414 10.27765,11.22167 -16.92467,6.40594 -32.191561,-1.37019 -38.629992,-13.29193 z"
         id="path5938" />
      <path
         style="fill:#ffaaaa;fill-opacity:1;stroke-width:0.264583"
         d="m 98.708334,173.01076 c -1.677111,-0.61043 -2.217914,-3.34944 -0.402775,-3.47553 5.745491,-0.39913 11.947021,1.30274 13.109351,7.50444 0.32664,1.74282 -1.56154,4.75471 -1.16217,2.63409 -1.93123,-6.52483 -6.82288,-4.94446 -11.544406,-6.663 z"
         id="path6041" />
      <path
         style="fill:#ffaaaa;fill-opacity:1;stroke-width:0.174387"
         d="m 115.92204,172.61224 c -0.89135,-0.84479 -0.49848,-2.55032 0.67677,-2.07952 3.72006,1.49023 7.16467,4.30101 6.236,8.14412 -0.26097,1.08 -2.25442,2.21421 -1.43577,1.13798 0.53159,-4.25481 -2.96761,-4.82424 -5.477,-7.20258 z"
         id="path6041-6" />
    </g>
    <g
       id="g6193"
       style="display:inline">
      <path
         id="path1917"
         style="fill:#ffffff;fill-opacity:0.988235;stroke-width:0.189208"
         d="m 77.389075,73.51382 a 20.569256,20.569256 0 0 0 -5.315438,13.770736 20.569256,20.569256 0 0 0 20.569287,20.569284 20.569256,20.569256 0 0 0 15.259016,-6.78873 22.492397,22.492397 0 0 0 17.43201,8.29097 22.492397,22.492397 0 0 0 22.49269,-22.492687 22.492397,22.492397 0 0 0 -4.41059,-13.349573 z" />
      <path
         id="path4583"
         style="fill:#dddddd;fill-opacity:1;stroke-width:0.241379"
         d="M 92.411414,67.390202 A 20.517368,20.267157 0 0 0 71.89432,87.657699 20.517368,20.267157 0 0 0 92.411414,107.92468 20.517368,20.267157 0 0 0 112.88355,88.859176 18.265461,17.848442 0 0 1 94.830387,104.0045 18.265461,17.848442 0 0 1 76.564836,86.156498 18.265461,17.848442 0 0 1 94.830387,68.307975 a 18.265461,17.848442 0 0 1 7.170623,1.433504 20.517368,20.267157 0 0 0 -9.589596,-2.351277 z" />
      <path
         id="path4583-0"
         style="fill:#dddddd;fill-opacity:1;stroke-width:0.246241"
         d="m 126.13029,68.975118 a 21.352333,20.267157 0 0 0 -1.52498,0.05374 v 1.283126 a 19.008784,17.848442 0 0 1 4.04213,-0.419096 19.008784,17.848442 0 0 1 7.4626,1.433505 21.352333,20.267157 0 0 0 -9.97975,-2.351278 z m 21.30516,21.468974 a 19.008784,17.848442 0 0 1 -18.78801,15.145328 19.008784,17.848442 0 0 1 -14.94327,-6.839375 h -6.41356 a 21.352333,20.267157 0 0 0 18.83968,10.759545 21.352333,20.267157 0 0 0 21.30516,-19.065498 z" />
      <circle
         style="fill:#000000;fill-opacity:1;stroke-width:0.264583"
         id="path3413"
         cx="91.176109"
         cy="89.052994"
         r="9.5540295" />
      <circle
         style="fill:url(#radialGradient5402);fill-opacity:1;stroke-width:0.172194"
         id="path3413-1"
         cx="95.414108"
         cy="85.40564"
         r="6.2178717" />
      <circle
         style="fill:#000000;fill-opacity:1;stroke-width:0.264583"
         id="path3413-0"
         cx="127.62297"
         cy="89.406845"
         r="9.5540295" />
      <circle
         style="fill:url(#radialGradient5402-3);fill-opacity:1;stroke-width:0.172194"
         id="path3413-1-3"
         cx="133.4463"
         cy="85.405632"
         r="6.2178717" />
    </g>
    <g
       id="g6172"
       style="display:inline">
      <path
         id="path1514-4"
         style="fill:#efb188;fill-opacity:0.988235;stroke-width:0.264564"
         d="m 104.70008,73.439445 c -6.452022,-0.0055 -4.21323,0.966713 0.30954,11.081494 5.5665,12.448962 -16.750148,33.943681 -14.464233,50.716281 2.105068,11.54922 4.009802,11.95888 16.914213,11.96465 0.99261,-4.6e-4 1.94776,-0.0145 2.87735,-0.0388 v 0.0165 c 1.02063,0.0297 2.07728,0.0444 3.17448,0.045 12.90442,-0.006 14.80914,-0.41543 16.91421,-11.96465 2.28591,-16.7726 -20.03021,-38.267322 -14.46371,-50.716283 5.52186,-12.349144 7.6188,-11.071762 -5.32784,-11.024134 v -0.02067 c -2.49329,-0.0051 -4.44508,-0.05815 -5.93401,-0.05943 z" />
      <path
         style="fill:#f5ccb2;fill-opacity:1;stroke-width:0.158026"
         d="m 121.20319,129.66762 c 0.36459,-8.8172 0.29925,-15.14841 -3.6211,-24.34074 -1.35607,-3.17967 -4.76333,-0.37635 -3.94373,1.31214 5.7889,11.92539 3.5341,11.93918 3.30602,23.07219 -0.0718,3.50252 4.07933,4.29721 4.25881,-0.0436 z"
         id="path4865-2" />
      <path
         id="path1514-4-2"
         style="fill:#e09361;fill-opacity:0.988235;stroke-width:0.264564"
         d="m 104.86886,84.412533 c 5.5665,12.448966 -16.750145,33.943687 -14.464235,50.716287 2.10507,11.54922 4.00981,11.95888 16.914215,11.96466 0.99261,-4.7e-4 1.94776,-0.0145 2.87735,-0.0388 v 0.0165 c 1.02063,0.0297 2.07728,0.0444 3.17448,0.045 12.90442,-0.006 13.68564,-0.88723 15.90866,-6.42095 -42.610484,13.52119 -27.94054,-28.16149 -20.414,-51.577917 2.24621,-6.988358 -7.47449,-10.886669 1.628,-15.706206 -11.338148,0.26149 -12.706065,-2.29207 -5.62447,11.001426 z" />
    </g>
    <g
       id="g6180"
       style="display:inline">
      <path
         id="path1514-5"
         style="fill:#000000;fill-opacity:0.988235;stroke-width:0.114571"
         d="m 112.69658,65.072662 c 0.25251,4.25552 2.73788,11.829483 8.05418,12.752104 l -1.8e-4,6.83e-4 0.0171,0.0029 23.44509,4.034899 0.004,-0.01413 c 5.25163,0.795823 9.6159,-0.09596 10.6448,-4.164664 1.02233,-4.06989 -3.71741,-3.613379 -7.66742,-3.965001 -3.95001,-0.351623 -4.00757,-0.381216 -10.93243,-2.037699 -6.92487,-1.656483 -6.84223,-1.727826 -11.40349,-3.882547 C 116.75365,65.03915 112.03972,54.00055 112.6967,65.072661 Z" />
      <path
         id="path1514-5-4"
         style="fill:#000000;fill-opacity:0.988235;stroke-width:0.114571"
         d="m 108.36321,61.619873 c -0.25251,4.25552 -2.73788,11.829483 -8.05418,12.752104 l 1.8e-4,6.83e-4 -0.0171,0.0029 -23.445096,4.034899 -0.004,-0.01413 c -5.25163,0.795823 -9.6159,-0.09596 -10.6448,-4.164664 -1.02233,-4.06989 3.71741,-3.613379 7.66742,-3.965001 3.95001,-0.351623 4.00757,-0.381216 10.932426,-2.037699 6.92488,-1.656483 6.84224,-1.727826 11.4035,-3.882547 8.10458,-2.760057 12.81851,-13.798657 12.16153,-2.726546 z" />
    </g>
  </g>
</svg>
