<?xml version="1.0" encoding="UTF-8" standalone="no"?>
<!-- Created with Inkscape (http://www.inkscape.org/) -->

<svg
   width="4.0351cm"
   height="7.3853741cm"
   viewBox="0 0 40.351 73.853741"
   version="1.1"
   id="svg5"
   xmlns:xlink="http://www.w3.org/1999/xlink"
   xmlns="http://www.w3.org/2000/svg"
   xmlns:svg="http://www.w3.org/2000/svg">
  <defs
     id="defs2">
    <color-profile
       name="Adobe-RGB--1998-"
       xlink:href="file:///System/Library/ColorSync/Profiles/AdobeRGB1998.icc"
       id="color-profile3924" />
    <color-profile
       name="ACES-CG-Linear--Academy-Color-Encoding-System-AP1-"
       xlink:href="file:///System/Library/ColorSync/Profiles/ACESCG%20Linear.icc"
       id="color-profile3926" />
  </defs>
  <g
     id="layer1"
     transform="translate(-90.239634,-73.370827)">
    <g
       id="g6172"
       style="display:inline">
      <path
         id="path1514-4"
         style="fill:#efb188;fill-opacity:0.988235;stroke-width:0.264564"
         d="m 104.70008,73.439445 c -6.452022,-0.0055 -4.21323,0.966713 0.30954,11.081494 5.5665,12.448962 -16.750148,33.943681 -14.464233,50.716281 2.105068,11.54922 4.009802,11.95888 16.914213,11.96465 0.99261,-4.6e-4 1.94776,-0.0145 2.87735,-0.0388 v 0.0165 c 1.02063,0.0297 2.07728,0.0444 3.17448,0.045 12.90442,-0.006 14.80914,-0.41543 16.91421,-11.96465 2.28591,-16.7726 -20.03021,-38.267322 -14.46371,-50.716283 5.52186,-12.349144 7.6188,-11.071762 -5.32784,-11.024134 v -0.02067 c -2.49329,-0.0051 -4.44508,-0.05815 -5.93401,-0.05943 z" />
      <path
         style="fill:#f5ccb2;fill-opacity:1;stroke-width:0.158026"
         d="m 121.20319,129.66762 c 0.36459,-8.8172 0.29925,-15.14841 -3.6211,-24.34074 -1.35607,-3.17967 -4.76333,-0.37635 -3.94373,1.31214 5.7889,11.92539 3.5341,11.93918 3.30602,23.07219 -0.0718,3.50252 4.07933,4.29721 4.25881,-0.0436 z"
         id="path4865-2" />
      <path
         id="path1514-4-2"
         style="fill:#e09361;fill-opacity:0.988235;stroke-width:0.264564"
         d="m 104.86886,84.412533 c 5.5665,12.448966 -16.750145,33.943687 -14.464235,50.716287 2.10507,11.54922 4.00981,11.95888 16.914215,11.96466 0.99261,-4.7e-4 1.94776,-0.0145 2.87735,-0.0388 v 0.0165 c 1.02063,0.0297 2.07728,0.0444 3.17448,0.045 12.90442,-0.006 13.68564,-0.88723 15.90866,-6.42095 -42.610484,13.52119 -27.94054,-28.16149 -20.414,-51.577917 2.24621,-6.988358 -7.47449,-10.886669 1.628,-15.706206 -11.338148,0.26149 -12.706065,-2.29207 -5.62447,11.001426 z" />
    </g>
  </g>
</svg>
